<svg width="152" height="59" viewBox="0 0 152 59" fill="none" xmlns="http://www.w3.org/2000/svg">
<path d="M61.1186 23V10.088H64.8626V23H61.1186ZM62.9906 8.288C62.3026 8.288 61.7426 8.088 61.3106 7.688C60.8786 7.288 60.6626 6.792 60.6626 6.2C60.6626 5.608 60.8786 5.112 61.3106 4.712C61.7426 4.312 62.3026 4.112 62.9906 4.112C63.6786 4.112 64.2386 4.304 64.6706 4.688C65.1026 5.056 65.3186 5.536 65.3186 6.128C65.3186 6.752 65.1026 7.272 64.6706 7.688C64.2546 8.088 63.6946 8.288 62.9906 8.288ZM76.1854 9.896C77.2094 9.896 78.1214 10.104 78.9214 10.52C79.7374 10.92 80.3774 11.544 80.8414 12.392C81.3054 13.224 81.5374 14.296 81.5374 15.608V23H77.7934V16.184C77.7934 15.144 77.5614 14.376 77.0974 13.88C76.6494 13.384 76.0094 13.136 75.1774 13.136C74.5854 13.136 74.0494 13.264 73.5694 13.52C73.1054 13.76 72.7374 14.136 72.4654 14.648C72.2094 15.16 72.0814 15.816 72.0814 16.616V23H68.3374V10.088H71.9134V13.664L71.2414 12.584C71.7054 11.72 72.3694 11.056 73.2334 10.592C74.0974 10.128 75.0814 9.896 76.1854 9.896ZM89.2751 23.192C88.1711 23.192 87.1071 23.064 86.0831 22.808C85.0751 22.536 84.2751 22.2 83.6831 21.8L84.9311 19.112C85.5231 19.48 86.2191 19.784 87.0191 20.024C87.8351 20.248 88.6351 20.36 89.4191 20.36C90.2831 20.36 90.8911 20.256 91.2431 20.048C91.6111 19.84 91.7951 19.552 91.7951 19.184C91.7951 18.88 91.6511 18.656 91.3631 18.512C91.0911 18.352 90.7231 18.232 90.2591 18.152C89.7951 18.072 89.2831 17.992 88.7231 17.912C88.1791 17.832 87.6271 17.728 87.0671 17.6C86.5071 17.456 85.9951 17.248 85.5311 16.976C85.0671 16.704 84.6911 16.336 84.4031 15.872C84.1311 15.408 83.9951 14.808 83.9951 14.072C83.9951 13.256 84.2271 12.536 84.6911 11.912C85.1711 11.288 85.8591 10.8 86.7551 10.448C87.6511 10.08 88.7231 9.896 89.9711 9.896C90.8511 9.896 91.7471 9.992 92.6591 10.184C93.5711 10.376 94.3311 10.656 94.9391 11.024L93.6911 13.688C93.0671 13.32 92.4351 13.072 91.7951 12.944C91.1711 12.8 90.5631 12.728 89.9711 12.728C89.1391 12.728 88.5311 12.84 88.1471 13.064C87.7631 13.288 87.5711 13.576 87.5711 13.928C87.5711 14.248 87.7071 14.488 87.9791 14.648C88.2671 14.808 88.6431 14.936 89.1071 15.032C89.5711 15.128 90.0751 15.216 90.6191 15.296C91.1791 15.36 91.7391 15.464 92.2991 15.608C92.8591 15.752 93.3631 15.96 93.8111 16.232C94.2751 16.488 94.6511 16.848 94.9391 17.312C95.2271 17.76 95.3711 18.352 95.3711 19.088C95.3711 19.888 95.1311 20.6 94.6511 21.224C94.1711 21.832 93.4751 22.312 92.5631 22.664C91.6671 23.016 90.5711 23.192 89.2751 23.192ZM102.961 23.192C101.441 23.192 100.257 22.808 99.4091 22.04C98.5611 21.256 98.1371 20.096 98.1371 18.56V7.232H101.881V18.512C101.881 19.056 102.025 19.48 102.313 19.784C102.601 20.072 102.993 20.216 103.489 20.216C104.081 20.216 104.585 20.056 105.001 19.736L106.009 22.376C105.625 22.648 105.161 22.856 104.617 23C104.089 23.128 103.537 23.192 102.961 23.192ZM96.1451 13.256V10.376H105.097V13.256H96.1451ZM108.111 23V10.088H111.687V13.736L111.183 12.68C111.567 11.768 112.183 11.08 113.031 10.616C113.879 10.136 114.911 9.896 116.127 9.896V13.352C115.967 13.336 115.823 13.328 115.695 13.328C115.567 13.312 115.431 13.304 115.287 13.304C114.263 13.304 113.431 13.6 112.791 14.192C112.167 14.768 111.855 15.672 111.855 16.904V23H108.111ZM125.429 23V20.48L125.189 19.928V15.416C125.189 14.616 124.941 13.992 124.445 13.544C123.965 13.096 123.221 12.872 122.213 12.872C121.525 12.872 120.845 12.984 120.173 13.208C119.517 13.416 118.957 13.704 118.493 14.072L117.149 11.456C117.853 10.96 118.701 10.576 119.693 10.304C120.685 10.032 121.693 9.896 122.717 9.896C124.685 9.896 126.213 10.36 127.301 11.288C128.389 12.216 128.933 13.664 128.933 15.632V23H125.429ZM121.493 23.192C120.485 23.192 119.621 23.024 118.901 22.688C118.181 22.336 117.629 21.864 117.245 21.272C116.861 20.68 116.669 20.016 116.669 19.28C116.669 18.512 116.853 17.84 117.221 17.264C117.605 16.688 118.205 16.24 119.021 15.92C119.837 15.584 120.901 15.416 122.213 15.416H125.645V17.6H122.621C121.741 17.6 121.133 17.744 120.797 18.032C120.477 18.32 120.317 18.68 120.317 19.112C120.317 19.592 120.501 19.976 120.869 20.264C121.253 20.536 121.773 20.672 122.429 20.672C123.053 20.672 123.613 20.528 124.109 20.24C124.605 19.936 124.965 19.496 125.189 18.92L125.765 20.648C125.493 21.48 124.997 22.112 124.277 22.544C123.557 22.976 122.629 23.192 121.493 23.192ZM77.6546 38.896C78.6786 38.896 79.5826 39.104 80.3666 39.52C81.1666 39.92 81.7906 40.544 82.2386 41.392C82.7026 42.224 82.9346 43.296 82.9346 44.608V52H79.1906V45.184C79.1906 44.144 78.9746 43.376 78.5426 42.88C78.1106 42.384 77.5026 42.136 76.7186 42.136C76.1746 42.136 75.6866 42.264 75.2546 42.52C74.8226 42.76 74.4866 43.128 74.2466 43.624C74.0066 44.12 73.8866 44.752 73.8866 45.52V52H70.1426V45.184C70.1426 44.144 69.9266 43.376 69.4946 42.88C69.0786 42.384 68.4786 42.136 67.6946 42.136C67.1506 42.136 66.6626 42.264 66.2306 42.52C65.7986 42.76 65.4626 43.128 65.2226 43.624C64.9826 44.12 64.8626 44.752 64.8626 45.52V52H61.1186V39.088H64.6946V42.616L64.0226 41.584C64.4706 40.704 65.1026 40.04 65.9186 39.592C66.7506 39.128 67.6946 38.896 68.7506 38.896C69.9346 38.896 70.9666 39.2 71.8466 39.808C72.7426 40.4 73.3346 41.312 73.6226 42.544L72.3026 42.184C72.7346 41.176 73.4226 40.376 74.3666 39.784C75.3266 39.192 76.4226 38.896 77.6546 38.896ZM94.2105 52V49.48L93.9705 48.928V44.416C93.9705 43.616 93.7225 42.992 93.2265 42.544C92.7465 42.096 92.0025 41.872 90.9945 41.872C90.3065 41.872 89.6265 41.984 88.9545 42.208C88.2985 42.416 87.7385 42.704 87.2745 43.072L85.9305 40.456C86.6345 39.96 87.4825 39.576 88.4745 39.304C89.4665 39.032 90.4745 38.896 91.4985 38.896C93.4665 38.896 94.9945 39.36 96.0825 40.288C97.1705 41.216 97.7145 42.664 97.7145 44.632V52H94.2105ZM90.2745 52.192C89.2665 52.192 88.4025 52.024 87.6825 51.688C86.9625 51.336 86.4105 50.864 86.0265 50.272C85.6425 49.68 85.4505 49.016 85.4505 48.28C85.4505 47.512 85.6345 46.84 86.0025 46.264C86.3865 45.688 86.9865 45.24 87.8025 44.92C88.6185 44.584 89.6825 44.416 90.9945 44.416H94.4265V46.6H91.4025C90.5225 46.6 89.9145 46.744 89.5785 47.032C89.2585 47.32 89.0985 47.68 89.0985 48.112C89.0985 48.592 89.2825 48.976 89.6505 49.264C90.0345 49.536 90.5545 49.672 91.2105 49.672C91.8345 49.672 92.3945 49.528 92.8905 49.24C93.3865 48.936 93.7465 48.496 93.9705 47.92L94.5465 49.648C94.2745 50.48 93.7785 51.112 93.0585 51.544C92.3385 51.976 91.4105 52.192 90.2745 52.192ZM106.383 52.192C104.863 52.192 103.679 51.808 102.831 51.04C101.983 50.256 101.559 49.096 101.559 47.56V36.232H105.303V47.512C105.303 48.056 105.447 48.48 105.735 48.784C106.023 49.072 106.415 49.216 106.911 49.216C107.503 49.216 108.007 49.056 108.423 48.736L109.431 51.376C109.047 51.648 108.583 51.856 108.039 52C107.511 52.128 106.959 52.192 106.383 52.192ZM99.567 42.256V39.376H108.519V42.256H99.567ZM113.183 52.192C112.543 52.192 111.991 51.976 111.527 51.544C111.079 51.096 110.855 50.528 110.855 49.84C110.855 49.152 111.079 48.6 111.527 48.184C111.991 47.752 112.543 47.536 113.183 47.536C113.839 47.536 114.391 47.752 114.839 48.184C115.287 48.6 115.511 49.152 115.511 49.84C115.511 50.528 115.287 51.096 114.839 51.544C114.391 51.976 113.839 52.192 113.183 52.192ZM125.68 52.192C124.544 52.192 123.568 51.952 122.752 51.472C121.936 50.992 121.312 50.264 120.88 49.288C120.448 48.296 120.232 47.048 120.232 45.544C120.232 44.024 120.456 42.776 120.904 41.8C121.368 40.824 122.008 40.096 122.824 39.616C123.64 39.136 124.592 38.896 125.68 38.896C126.896 38.896 127.984 39.168 128.944 39.712C129.92 40.256 130.688 41.024 131.248 42.016C131.824 43.008 132.112 44.184 132.112 45.544C132.112 46.888 131.824 48.056 131.248 49.048C130.688 50.04 129.92 50.816 128.944 51.376C127.984 51.92 126.896 52.192 125.68 52.192ZM118.048 52V34.192H121.792V41.704L121.552 45.52L121.624 49.36V52H118.048ZM125.032 49.12C125.656 49.12 126.208 48.976 126.688 48.688C127.184 48.4 127.576 47.992 127.864 47.464C128.168 46.92 128.32 46.28 128.32 45.544C128.32 44.792 128.168 44.152 127.864 43.624C127.576 43.096 127.184 42.688 126.688 42.4C126.208 42.112 125.656 41.968 125.032 41.968C124.408 41.968 123.848 42.112 123.352 42.4C122.856 42.688 122.464 43.096 122.176 43.624C121.888 44.152 121.744 44.792 121.744 45.544C121.744 46.28 121.888 46.92 122.176 47.464C122.464 47.992 122.856 48.4 123.352 48.688C123.848 48.976 124.408 49.12 125.032 49.12ZM135.899 56.848C135.227 56.848 134.563 56.744 133.907 56.536C133.251 56.328 132.715 56.04 132.299 55.672L133.667 53.008C133.955 53.264 134.283 53.464 134.651 53.608C135.035 53.752 135.411 53.824 135.779 53.824C136.307 53.824 136.723 53.696 137.027 53.44C137.347 53.2 137.635 52.792 137.891 52.216L138.563 50.632L138.851 50.224L143.483 39.088H147.083L141.251 52.792C140.835 53.832 140.355 54.648 139.811 55.24C139.283 55.832 138.691 56.248 138.035 56.488C137.395 56.728 136.683 56.848 135.899 56.848ZM138.107 52.504L132.347 39.088H136.211L140.675 49.888L138.107 52.504Z" fill="black"/>
<path d="M35.6517 14.75H33.5546V12.2917C33.5546 9.5875 31.6672 7.375 29.3604 7.375H20.9718C18.665 7.375 16.7776 9.5875 16.7776 12.2917V14.75H14.6804C7.73894 14.75 2.09766 21.3629 2.09766 29.5C2.09766 37.6371 7.73894 44.25 14.6804 44.25V51.625H18.8747V44.25H31.4575V51.625H35.6517V44.25C42.5932 44.25 48.2345 37.6371 48.2345 29.5C48.2345 21.3629 42.5932 14.75 35.6517 14.75ZM20.9718 12.2917H29.3604V14.75H20.9718V12.2917ZM35.6517 39.3333H14.6804C10.0458 39.3333 6.29192 34.9329 6.29192 29.5C6.29192 24.0671 10.0458 19.6667 14.6804 19.6667H35.6517C40.2864 19.6667 44.0403 24.0671 44.0403 29.5C44.0403 34.9329 40.2864 39.3333 35.6517 39.3333Z" fill="black"/>
</svg>
